<svg width="70" height="70" viewBox="0 0 70 70" fill="none" xmlns="http://www.w3.org/2000/svg">
<path fill-rule="evenodd" clip-rule="evenodd" d="M35.1214 0C15.7675 0 0 15.7675 0 35.1214C0 54.4704 15.7675 70 35.1214 70C54.4704 70 70 54.4704 70 35.1214C70 15.7675 54.4704 0 35.1214 0ZM38.9406 45.1525L40.1345 46.1086C40.1345 46.1086 40.615 46.8268 42.0466 46.3463C43.4832 45.633 47.0646 41.571 47.0646 41.571C47.0646 41.571 48.7389 40.1345 50.4083 41.571C52.3204 43.0027 58.0518 48.7389 58.0518 48.7389C58.0518 48.7389 59.0079 50.4083 57.814 52.0827C56.3825 53.5143 50.4083 58.0518 50.4083 58.0518C50.4083 58.0518 47.7828 59.2505 44.6769 56.8579C39.1784 52.3204 17.6796 30.8167 13.142 25.3231C10.7494 22.2172 12.186 19.5917 12.186 19.5917C12.186 19.5917 16.4857 13.6176 18.1551 12.4238C19.8295 10.9921 21.2611 12.186 21.2611 12.186C21.2611 12.186 26.9973 17.9173 28.429 19.5917C29.8655 21.5037 28.429 22.9354 28.429 22.9354C28.429 22.9354 24.367 26.5168 23.8914 27.9534C23.1732 29.385 23.8914 30.1034 23.8914 30.1034L25.0852 31.2971C29.6227 35.8347 34.1653 40.3771 38.9406 45.1525Z" fill="white"/>
</svg>
