<svg width="60" height="60" viewBox="0 0 60 60" fill="none" xmlns="http://www.w3.org/2000/svg">
<path d="M30 0C13.4264 0 0 13.4284 0 30C0 46.5715 13.4284 60 30 60C46.5735 60 60 46.5715 60 30C60 13.4284 46.5715 0 30 0ZM44.7348 20.5528L39.8109 43.7555C39.4471 45.4006 38.4677 45.7993 37.1012 45.0251L29.6012 39.4974L25.9838 42.9813C25.5851 43.38 25.2464 43.7187 24.4722 43.7187L25.0045 36.0851L38.9032 23.5277C39.509 22.9954 38.7697 22.6936 37.9703 23.2257L20.7929 34.0393L13.3896 31.7283C11.7813 31.2212 11.7445 30.12 13.7284 29.3458L42.6523 18.1916C43.9954 17.7078 45.1683 18.5188 44.7328 20.551L44.7348 20.5528Z" fill="white"/>
</svg>
