<svg width="60" height="60" viewBox="0 0 60 60" fill="none" xmlns="http://www.w3.org/2000/svg">
<path fill-rule="evenodd" clip-rule="evenodd" d="M30 0C46.5575 0 60 13.4425 60 30C60 46.5575 46.5575 60 30 60C13.4425 60 0 46.5575 0 30C0 13.4425 13.4425 0 30 0ZM30 11.25C24.9078 11.25 24.2693 11.2716 22.2694 11.3628C20.2736 11.4539 18.9107 11.7709 17.7179 12.2344C16.485 12.7135 15.4393 13.3547 14.397 14.3971C13.3546 15.4394 12.7134 16.4851 12.2342 17.718C11.7708 18.9107 11.4539 20.2736 11.3627 22.2694C11.2716 24.2693 11.25 24.9078 11.25 30C11.25 35.0922 11.2716 35.7307 11.3627 37.7306C11.4539 39.7264 11.7708 41.0893 12.2342 42.282C12.7134 43.5149 13.3546 44.5606 14.397 45.603C15.4393 46.6454 16.485 47.2866 17.7179 47.7658C18.9107 48.2291 20.2736 48.5461 22.2694 48.6372C24.2693 48.7284 24.9078 48.75 30 48.75C35.0922 48.75 35.7307 48.7284 37.7306 48.6372C39.7264 48.5461 41.0893 48.2291 42.282 47.7658C43.5149 47.2866 44.5606 46.6454 45.603 45.603C46.6454 44.5606 47.2866 43.5149 47.7658 42.282C48.2291 41.0893 48.5461 39.7264 48.6372 37.7306C48.7284 35.7307 48.75 35.0922 48.75 30C48.75 24.9078 48.7284 24.2693 48.6372 22.2694C48.5461 20.2736 48.2291 18.9107 47.7658 17.718C47.2866 16.4851 46.6454 15.4394 45.603 14.3971C44.5606 13.3547 43.5149 12.7135 42.282 12.2344C41.0893 11.7709 39.7264 11.4539 37.7306 11.3628C35.7307 11.2716 35.0922 11.25 30 11.25ZM30 14.6284C35.0065 14.6284 35.5994 14.6476 37.5767 14.7377C39.4048 14.8212 40.3975 15.1266 41.0581 15.3833C41.9334 15.7234 42.558 16.1298 43.214 16.786C43.8703 17.442 44.2766 18.0667 44.6167 18.9419C44.8734 19.6025 45.1789 20.5952 45.2623 22.4233C45.3526 24.4006 45.3716 24.9935 45.3716 30C45.3716 35.0065 45.3526 35.5994 45.2623 37.5767C45.1789 39.4048 44.8734 40.3975 44.6167 41.0581C44.2766 41.9334 43.8703 42.558 43.214 43.214C42.558 43.8703 41.9334 44.2766 41.0581 44.6167C40.3975 44.8734 39.4048 45.1789 37.5767 45.2623C35.5998 45.3526 35.0069 45.3716 30 45.3716C24.9931 45.3716 24.4003 45.3526 22.4233 45.2623C20.5952 45.1789 19.6025 44.8734 18.9419 44.6167C18.0666 44.2766 17.442 43.8703 16.7858 43.214C16.1297 42.558 15.7234 41.9334 15.3833 41.0581C15.1266 40.3975 14.8211 39.4048 14.7376 37.5767C14.6474 35.5994 14.6284 35.0065 14.6284 30C14.6284 24.9935 14.6474 24.4006 14.7376 22.4233C14.8211 20.5952 15.1266 19.6025 15.3833 18.9419C15.7234 18.0667 16.1297 17.442 16.7858 16.786C17.442 16.1298 18.0666 15.7234 18.9419 15.3833C19.6025 15.1266 20.5952 14.8212 22.4233 14.7377C24.4006 14.6476 24.9935 14.6284 30 14.6284ZM30 20.3717C24.6824 20.3717 20.3717 24.6824 20.3717 30C20.3717 35.3176 24.6824 39.6283 30 39.6283C35.3176 39.6283 39.6283 35.3176 39.6283 30C39.6283 24.6824 35.3176 20.3717 30 20.3717ZM30 36.25C26.5482 36.25 23.75 33.4518 23.75 30C23.75 26.5482 26.5482 23.75 30 23.75C33.4518 23.75 36.25 26.5482 36.25 30C36.25 33.4518 33.4518 36.25 30 36.25ZM42.2588 19.9913C42.2588 21.2339 41.2514 22.2412 40.0087 22.2412C38.7662 22.2412 37.7588 21.2339 37.7588 19.9913C37.7588 18.7486 38.7662 17.7413 40.0087 17.7413C41.2514 17.7413 42.2588 18.7486 42.2588 19.9913Z" fill="white"/>
</svg>
