<svg width="80" height="80" viewBox="0 0 80 80" fill="none" xmlns="http://www.w3.org/2000/svg">
<path d="M40 69.5383C39.8368 69.5382 39.6759 69.5012 39.5291 69.4301C39.3823 69.3589 39.2535 69.2555 39.1524 69.1275C38.2356 67.9686 16.7037 40.5697 16.7037 25.4583C16.7037 19.2795 19.1583 13.3537 23.5274 8.98463C27.8964 4.61554 33.8222 2.16101 40.001 2.16101C46.1799 2.16101 52.1056 4.61554 56.4747 8.98463C60.8438 13.3537 63.2983 19.2795 63.2983 25.4583C63.2983 40.5697 41.7664 67.9686 40.8497 69.1275C40.7483 69.2558 40.6192 69.3594 40.472 69.4305C40.3248 69.5017 40.1634 69.5385 40 69.5383ZM40 4.32425C34.3969 4.33083 29.0252 6.55956 25.0632 10.5215C21.1012 14.4835 18.8725 19.8552 18.8659 25.4583C18.8659 38.1913 35.9578 61.3815 40 66.6875C44.0421 61.3805 61.134 38.187 61.134 25.4583C61.1274 19.8552 58.8987 14.4835 54.9367 10.5215C50.9747 6.55956 45.603 4.33083 40 4.32425Z" fill="white"/>
<path d="M40 41.3513C36.8729 41.3513 33.816 40.4241 31.2159 38.6867C28.6159 36.9494 26.5894 34.4801 25.3927 31.5911C24.196 28.702 23.8829 25.523 24.493 22.456C25.103 19.389 26.6089 16.5718 28.82 14.3606C31.0312 12.1494 33.8484 10.6436 36.9154 10.0335C39.9824 9.42348 43.1615 9.73659 46.0505 10.9333C48.9395 12.13 51.4089 14.1565 53.1462 16.7565C54.8835 19.3566 55.8108 22.4135 55.8108 25.5405C55.8059 29.7323 54.1386 33.7511 51.1745 36.7151C48.2105 39.6791 44.1918 41.3465 40 41.3513ZM40 11.8919C37.3005 11.8919 34.6617 12.6924 32.4172 14.1921C30.1727 15.6918 28.4233 17.8235 27.3903 20.3174C26.3572 22.8114 26.0869 25.5557 26.6136 28.2033C27.1402 30.8508 28.4401 33.2828 30.3489 35.1916C32.2577 37.1004 34.6897 38.4003 37.3372 38.9269C39.9848 39.4536 42.7291 39.1833 45.2231 38.1502C47.717 37.1172 49.8487 35.3678 51.3484 33.1233C52.8481 30.8788 53.6486 28.24 53.6486 25.5405C53.6443 21.922 52.205 18.4529 49.6463 15.8942C47.0876 13.3356 43.6185 11.8962 40 11.8919Z" fill="white"/>
<path d="M48.854 77.8378H45.6864C45.3997 77.8378 45.1247 77.7239 44.922 77.5212C44.7192 77.3184 44.6053 77.0435 44.6053 76.7567C44.6053 76.47 44.7192 76.195 44.922 75.9923C45.1247 75.7896 45.3997 75.6757 45.6864 75.6757H48.854C49.1407 75.6757 49.4157 75.7896 49.6184 75.9923C49.8212 76.195 49.9351 76.47 49.9351 76.7567C49.9351 77.0435 49.8212 77.3184 49.6184 77.5212C49.4157 77.7239 49.1407 77.8378 48.854 77.8378Z" fill="white"/>
<path d="M27.373 77.8378H16.2811C16.124 77.8377 15.9689 77.8035 15.8264 77.7374C15.684 77.6713 15.5576 77.575 15.4562 77.4551C15.3547 77.3352 15.2806 77.1947 15.239 77.0433C15.1974 76.8919 15.1892 76.7332 15.2151 76.5783L18.7719 55.2378C18.8141 54.9856 18.9443 54.7564 19.1395 54.5912C19.3347 54.4259 19.5821 54.3352 19.8378 54.3351H30.7243C31.011 54.3351 31.286 54.449 31.4888 54.6517C31.6915 54.8545 31.8054 55.1294 31.8054 55.4162C31.8054 55.7029 31.6915 55.9779 31.4888 56.1806C31.286 56.3833 31.011 56.4972 30.7243 56.4972H20.7568L17.5578 75.6756H27.373C27.6597 75.6756 27.9347 75.7895 28.1374 75.9923C28.3402 76.195 28.4541 76.47 28.4541 76.7567C28.4541 77.0434 28.3402 77.3184 28.1374 77.5212C27.9347 77.7239 27.6597 77.8378 27.373 77.8378Z" fill="white"/>
<path d="M38.1189 77.8378H34.9405C34.6538 77.8378 34.3788 77.7239 34.1761 77.5212C33.9733 77.3184 33.8594 77.0435 33.8594 76.7567C33.8594 76.47 33.9733 76.195 34.1761 75.9923C34.3788 75.7896 34.6538 75.6757 34.9405 75.6757H38.1189C38.4056 75.6757 38.6806 75.7896 38.8833 75.9923C39.0861 76.195 39.2 76.47 39.2 76.7567C39.2 77.0435 39.0861 77.3184 38.8833 77.5212C38.6806 77.7239 38.4056 77.8378 38.1189 77.8378Z" fill="white"/>
<path d="M63.7189 77.8378H56.4324C56.1457 77.8378 55.8707 77.7239 55.668 77.5212C55.4652 77.3184 55.3513 77.0434 55.3513 76.7567C55.3513 76.47 55.4652 76.195 55.668 75.9923C55.8707 75.7895 56.1457 75.6756 56.4324 75.6756H62.4421L59.2432 56.4972H49.2757C48.9889 56.4972 48.714 56.3833 48.5112 56.1806C48.3085 55.9779 48.1946 55.7029 48.1946 55.4162C48.1946 55.1294 48.3085 54.8545 48.5112 54.6517C48.714 54.449 48.9889 54.3351 49.2757 54.3351H60.1621C60.4179 54.3352 60.6653 54.4259 60.8605 54.5912C61.0556 54.7564 61.1859 54.9856 61.2281 55.2378L64.7848 76.5783C64.8108 76.7332 64.8026 76.8919 64.761 77.0433C64.7194 77.1947 64.6452 77.3352 64.5438 77.4551C64.4423 77.575 64.316 77.6713 64.1735 77.7374C64.0311 77.8035 63.8759 77.8377 63.7189 77.8378Z" fill="white"/>
</svg>
