<svg width="52" height="52" viewBox="0 0 24 24" fill="none" xmlns="http://www.w3.org/2000/svg">
<path d="M12.1 2C11.9 2 11.6 2.1 11.4 2.3L9.40001 4.1L6.90001 3.7C6.30001 3.6 5.80001 4 5.70001 4.6L5.30001 7.1L3.00001 8.3C2.50001 8.6 2.30001 9.2 2.50001 9.7L3.70001 12L2.60001 14.3C2.40001 14.8 2.60001 15.4 3.00001 15.7L5.30001 16.9L5.70001 19.4C5.80001 20 6.30001 20.3 6.90001 20.3L9.40001 19.9L11.2 21.7C11.6 22.1 12.2 22.1 12.6 21.7L14.4 19.9L16.9 20.3C17.5 20.4 18 20 18.1 19.4L18.5 16.9L20.8 15.7C21.3 15.4 21.5 14.8 21.2 14.3L20.3 12L21.4 9.7C21.6 9.2 21.4 8.6 21 8.3L18.7 7.1L18.3 4.6C18.2 4 17.7 3.7 17.1 3.7L14.6 4.1L12.8 2.3C12.6 2.1 12.3 2 12.1 2ZM9.90001 7C10.5 7 11 7.2 11.3 7.6C11.7 8 11.8 8.4 11.8 9V9.5C11.8 10.1 11.6 10.6 11.3 10.9C11 11.3 10.5 11.5 9.90001 11.5C9.30001 11.5 8.80001 11.3 8.50001 11C8.20001 10.6 8.00001 10.1 8.00001 9.5V9C8.00001 8.4 8.20001 8 8.50001 7.6C8.80001 7.2 9.30001 7 9.90001 7ZM9.90001 8C9.70001 8 9.50001 8.2 9.40001 8.3C9.30001 8.5 9.20001 8.7 9.20001 9V9.5C9.20001 9.8 9.30001 10 9.40001 10.2C9.50001 10.4 9.70001 10.5 9.90001 10.5C10.1 10.5 10.3 10.4 10.4 10.2C10.5 10 10.6 9.8 10.6 9.5V9C10.6 8.7 10.5 8.5 10.4 8.3C10.3 8.1 10.1 8 9.90001 8ZM13.6 8L14.5 8.5L10.4 16.1L9.50001 15.6L13.6 8ZM14.1 12.5C14.7 12.5 15.2 12.7 15.5 13.1C15.8 13.5 16 14 16 14.5V15C16 15.6 15.8 16.1 15.5 16.4C15.2 16.7 14.7 17 14.1 17C13.5 17 13 16.8 12.7 16.4C12.4 16 12.2 15.5 12.2 15V14.5C12.2 13.9 12.4 13.5 12.7 13.1C13 12.7 13.5 12.5 14.1 12.5ZM14.1 13.5C13.9 13.5 13.7 13.6 13.6 13.8C13.5 14 13.4 14.2 13.4 14.5V15C13.4 15.3 13.5 15.5 13.6 15.7C13.7 15.9 13.9 16 14.1 16C14.4 16 14.5 15.9 14.6 15.7C14.7 15.5 14.7 15.3 14.7 15V14.5C14.7 14.2 14.6 14 14.5 13.8C14.5 13.6 14.3 13.5 14.1 13.5Z" fill="#FF0000"/>
</svg>
