<svg width="78" height="80" viewBox="0 0 78 80" fill="none" xmlns="http://www.w3.org/2000/svg">
<path d="M22.75 9.375H31.8125C32.6753 9.375 33.375 8.67547 33.375 7.8125C33.375 6.94953 32.6753 6.25 31.8125 6.25H22.75C21.8872 6.25 21.1875 6.94953 21.1875 7.8125C21.1875 8.67547 21.8872 9.375 22.75 9.375Z" fill="white"/>
<path d="M27.2812 70.625C26.8703 70.625 26.4672 70.7922 26.1766 71.0828C25.8859 71.3734 25.7188 71.7766 25.7188 72.1875C25.7188 72.5984 25.8858 73.0016 26.1766 73.2922C26.4673 73.5828 26.8703 73.75 27.2812 73.75C27.6922 73.75 28.0953 73.5828 28.3858 73.2922C28.6764 73.0016 28.8438 72.5984 28.8438 72.1875C28.8438 71.7766 28.6766 71.3734 28.3858 71.0828C28.0953 70.7922 27.6922 70.625 27.2812 70.625Z" fill="white"/>
<path d="M75.7188 38.4375H53.8438V7.8125C53.8438 3.50469 50.3391 0 46.0312 0H8.53125C4.22344 0 0.71875 3.50469 0.71875 7.8125V72.1875C0.71875 76.4953 4.22344 80 8.53125 80H70.7188C74.3373 80 77.2812 77.0561 77.2812 73.4375V67.3438C77.2812 66.4808 76.5816 65.7812 75.7188 65.7812C74.8559 65.7812 74.1562 66.4808 74.1562 67.3438V73.4375C74.1562 75.333 72.6142 76.875 70.7188 76.875H45.7188C43.8233 76.875 42.2812 75.333 42.2812 73.4375V41.5625H74.1562V53.2812C74.1562 54.1442 74.8559 54.8438 75.7188 54.8438C76.5816 54.8438 77.2812 54.1442 77.2812 53.2812V40C77.2812 39.137 76.5816 38.4375 75.7188 38.4375ZM8.53125 3.125H46.0312C48.6159 3.125 50.7188 5.22781 50.7188 7.8125V12.5H3.84375V7.8125C3.84375 5.22781 5.94656 3.125 8.53125 3.125ZM8.53125 76.875C5.94656 76.875 3.84375 74.7722 3.84375 72.1875V67.5H39.1562V73.4375C39.1562 74.6972 39.5138 75.8745 40.1316 76.875H8.53125ZM40.7188 38.4375C39.8559 38.4375 39.1562 39.137 39.1562 40V64.375H3.84375V15.625H50.7188V38.4375H40.7188Z" fill="white"/>
<path d="M50.7188 46.0305C49.8559 46.0305 49.1562 46.73 49.1562 47.593V52.8126C49.1562 57.8096 53.2217 61.8751 58.2188 61.8751C63.2158 61.8751 67.2812 57.8096 67.2812 52.8126V47.593C67.2812 46.73 66.5816 46.0305 65.7188 46.0305C64.8559 46.0305 64.1562 46.73 64.1562 47.593V52.8126C64.1562 56.0865 61.4927 58.7501 58.2188 58.7501C54.9448 58.7501 52.2812 56.0865 52.2812 52.8126V47.593C52.2812 46.73 51.5816 46.0305 50.7188 46.0305Z" fill="white"/>
<path d="M75.7188 58.75C75.3078 58.75 74.9047 58.9172 74.6141 59.2078C74.3234 59.4984 74.1562 59.9016 74.1562 60.3125C74.1562 60.7234 74.3233 61.1266 74.6141 61.4172C74.9048 61.7078 75.3078 61.875 75.7188 61.875C76.1297 61.875 76.5328 61.7078 76.8233 61.4172C77.1139 61.1266 77.2812 60.7234 77.2812 60.3125C77.2812 59.9016 77.1141 59.4984 76.8233 59.2078C76.5328 58.9172 76.1297 58.75 75.7188 58.75Z" fill="white"/>
<path d="M30.2511 38.3904C29.7886 38.227 29.3159 38.0559 28.8437 37.8781V29.7042C30.1265 30.0129 30.8837 30.6658 30.9351 30.7114C31.2147 30.974 31.5867 31.1319 32.0004 31.1319C32.8634 31.1319 33.5629 30.4323 33.5629 29.5694C33.5629 29.1101 33.3643 28.6978 33.049 28.412C32.9556 28.3259 31.3984 26.9229 28.8437 26.5236V24.7836C28.8437 23.9206 28.144 23.2211 27.2812 23.2211C26.4184 23.2211 25.7187 23.9206 25.7187 24.7836V26.5922C25.3965 26.6548 25.0667 26.734 24.7282 26.8361C22.3711 27.5461 20.6095 29.5647 20.1309 32.1042C19.6951 34.4159 20.4332 36.6431 22.0568 37.9165C22.9703 38.6329 24.1164 39.2869 25.7187 39.9853V50.1748C24.2531 50.1026 23.3234 49.8086 21.7304 48.7664C21.0082 48.2939 20.0398 48.4965 19.5675 49.2186C19.0951 49.9408 19.2975 50.9092 20.0197 51.3815C22.2356 52.8311 23.7211 53.2178 25.7189 53.3009V55.2162C25.7189 56.0792 26.4186 56.7787 27.2814 56.7787C28.1442 56.7787 28.8439 56.0792 28.8439 55.2162V53.1464C32.517 52.3976 34.6628 49.3564 35.1406 46.5145C35.757 42.8473 33.8378 39.6583 30.2511 38.3904ZM23.9856 35.4576C23.2834 34.907 22.9831 33.8436 23.2017 32.6828C23.4068 31.5945 24.1523 30.2733 25.6295 29.8283C25.6595 29.8192 25.6887 29.812 25.7186 29.8034V36.5304C25.0592 36.1914 24.4654 35.834 23.9856 35.4576ZM32.0587 45.9965C31.7943 47.5689 30.7018 49.2401 28.8437 49.9017V41.2065C28.964 41.2497 29.0856 41.2931 29.2095 41.3369C32.3911 42.4614 32.1947 45.1878 32.0587 45.9965Z" fill="white"/>
</svg>
