<svg width="80" height="74" viewBox="0 0 80 74" fill="none" xmlns="http://www.w3.org/2000/svg">
<path d="M79.84 31.2461C79.5626 30.6555 78.9702 30.2776 78.3149 30.2776H73.3329C70.1653 13.0882 55.0712 0.0212402 36.9796 0.0212402C16.5903 0.0212402 0 16.6115 0 37.0009C0 57.3902 16.5886 73.9788 36.9796 73.9788C50.1385 73.9788 62.4106 66.8964 69.0062 55.4992C69.9355 53.8907 69.3875 51.8363 67.7773 50.9053C66.1705 49.9742 64.1144 50.5223 63.1867 52.1308C57.7877 61.4599 47.7454 67.2573 36.9796 67.2573C20.2974 67.2573 6.72326 53.6848 6.72326 37.0043C6.72326 20.3204 20.2974 6.74791 36.9796 6.74791C51.3487 6.74791 63.3876 16.826 66.4548 30.2793H61.5119C60.8566 30.2793 60.2659 30.6572 59.9868 31.2478C59.7094 31.8384 59.7996 32.5346 60.2183 33.0367L68.6232 43.1216C68.9432 43.5046 69.4147 43.7258 69.9151 43.7258C70.4138 43.7258 70.887 43.5029 71.2053 43.1216L79.6102 33.0367C80.0289 32.5329 80.1174 31.8367 79.84 31.2461Z" fill="white"/>
<path d="M36.9796 8.42615C35.1226 8.42615 33.618 9.9308 33.618 11.7878V32.1856C32.098 33.2512 31.0972 35.0077 31.0972 37.0026C31.0972 40.2467 33.7371 42.8867 36.9813 42.8867C37.8698 42.8867 38.7072 42.6739 39.463 42.3182L51.1563 49.067C51.6874 49.3751 52.2627 49.5197 52.8346 49.5197C53.9954 49.5197 55.1256 48.9172 55.7486 47.8381C56.6762 46.233 56.1264 44.1752 54.5163 43.2475L42.811 36.4885C42.6544 34.7115 41.7302 33.1592 40.3447 32.189V11.7878C40.3413 9.9325 38.8349 8.42615 36.9796 8.42615ZM36.9796 39.5217C35.589 39.5217 34.4588 38.3898 34.4588 37.0026C34.4588 35.6137 35.5907 34.4818 36.9796 34.4818C38.3685 34.4818 39.5004 35.6137 39.5004 37.0026C39.5004 38.3898 38.3685 39.5217 36.9796 39.5217Z" fill="white"/>
</svg>
