<svg width="79" height="80" viewBox="0 0 79 80" fill="none" xmlns="http://www.w3.org/2000/svg">
<g clip-path="url(#clip0)">
<path d="M0.248638 7.33858L5.49224 16.6749C5.66911 16.9904 5.96515 17.2187 6.31135 17.307L11.2034 18.5514L27.9819 35.6236L29.8358 33.7378L12.7947 16.3989C12.627 16.2277 12.4167 16.1065 12.1864 16.0478L7.48582 14.8478L3.02143 6.89415L6.84897 2.99962L14.6691 7.54653L15.8489 12.3294C15.9061 12.5642 16.0258 12.7787 16.1935 12.9494L33.2347 30.2888L35.088 28.4024L18.3095 11.3302L17.0865 6.35535C16.9997 6.00254 16.7754 5.70077 16.4653 5.52026L7.28899 0.185442C6.77725 -0.110845 6.1334 -0.023056 5.71602 0.399976L0.472963 5.73534C0.0512748 6.15727 -0.0403964 6.81349 0.248638 7.33858Z" fill="white"/>
<path d="M54.7473 26.2867L25.9091 55.6301L24.0552 53.7437L52.8939 24.4009L54.7473 26.2867Z" fill="white"/>
<path d="M20.8618 56.6681C20.6245 56.2665 20.1985 56.0212 19.738 56.0212H11.8731C11.4132 56.0212 10.9866 56.2665 10.7499 56.6681L6.8172 63.3368C6.56753 63.7593 6.56753 64.2876 6.8172 64.7107L10.7499 71.3793C10.9866 71.7804 11.4132 72.0262 11.8731 72.0262H19.738C20.1985 72.0262 20.6245 71.7804 20.8618 71.3793L24.7939 64.7107C25.0436 64.2876 25.0436 63.7593 24.7939 63.3368L20.8618 56.6681ZM18.9965 69.3585H12.6151L9.46919 64.0237L12.6151 58.6884H18.9965L22.1425 64.0237L18.9965 69.3585Z" fill="white"/>
<path d="M62.9956 32.0132C71.6532 32.0429 78.6957 24.9254 78.7248 16.1163C78.7291 14.7754 78.5673 13.4399 78.2433 12.1401C78.0685 11.4251 77.3573 10.99 76.6546 11.1678C76.4238 11.2265 76.2135 11.3478 76.0453 11.5184L67.8855 19.8155L61.4113 17.6203L59.2522 11.0345L67.412 2.7302C67.9238 2.20895 67.9232 1.36454 67.4109 0.843839C67.2422 0.672102 67.0297 0.550295 66.7973 0.492135C58.4013 -1.67131 49.8721 3.5 47.7458 12.0424C47.4228 13.3384 47.2616 14.6706 47.2659 16.0077C47.2691 17.0579 47.3754 18.1048 47.5846 19.133L18.8769 48.3425C17.8664 48.1302 16.8375 48.0221 15.8059 48.0182C7.1182 48.0182 0.0756836 55.184 0.0756836 64.0238C0.0756836 72.863 7.1182 80.0287 15.8059 80.0287C24.4931 80.0287 31.5357 72.863 31.5357 64.0238C31.5324 62.9736 31.4256 61.9267 31.217 60.8985L38.0896 53.9056L41.0953 56.9639C41.6076 57.4846 42.437 57.4846 42.9493 56.9639L43.6044 56.2967C44.1793 55.7157 45.1084 55.7157 45.6832 56.2967C46.2575 56.8794 46.2586 57.8253 45.6859 58.4097C45.6854 58.4102 45.6843 58.4113 45.6832 58.4124L45.028 59.0791C44.5163 59.5998 44.5163 60.4442 45.028 60.9649L60.665 76.8755C64.7778 81.0987 71.4763 81.1294 75.6268 76.9446C79.7769 72.7598 79.8071 65.9436 75.6943 61.721C75.6721 61.6979 75.6495 61.6749 75.6268 61.6518L59.9899 45.7418C59.4781 45.2211 58.6482 45.2211 58.1365 45.7418L57.4813 46.4084C56.906 46.99 55.9774 46.99 55.402 46.4084C54.8282 45.8257 54.8266 44.8798 55.3993 44.296C55.4004 44.2949 55.4015 44.2943 55.402 44.2932L56.0577 43.626C56.5695 43.1053 56.5695 42.2609 56.0577 41.7402L53.052 38.6819L59.9246 31.689C60.9352 31.9013 61.9641 32.0099 62.9956 32.0132ZM68.1459 77.3616C67.1936 77.36 66.2494 77.1849 65.358 76.8442L75.5956 66.427C77.1405 70.6085 75.0617 75.2722 70.9521 76.8442C70.0554 77.1871 69.1047 77.3627 68.1459 77.3616ZM53.2957 42.6966C51.8441 44.4584 52.0716 47.0844 53.8031 48.5609C55.3249 49.8585 57.5428 49.8574 59.0629 48.557L73.7735 63.5382C73.9331 63.7011 74.0825 63.8729 74.227 64.0474L63.0193 75.4511C62.8473 75.3046 62.6785 75.1526 62.5184 74.9897L47.7965 60.0091C49.2482 58.2473 49.0206 55.6213 47.2891 54.1448C45.7673 52.8466 43.5489 52.8483 42.0288 54.1481L39.9317 52.0143L51.1981 40.5677L53.2957 42.6966ZM58.5889 29.2819L28.8524 59.5328C28.5261 59.8642 28.3951 60.3454 28.5062 60.8003C30.3046 67.9863 26.037 75.2953 18.974 77.1246C11.9115 78.9544 4.72827 74.6122 2.9299 67.4256C1.13206 60.2395 5.39963 52.9306 12.4626 51.1007C14.5991 50.5476 16.8375 50.5476 18.974 51.1007C19.421 51.2121 19.8929 51.0788 20.2196 50.749L49.9492 20.4975C50.2749 20.1661 50.4059 19.685 50.2938 19.2306C48.5078 12.1285 52.7182 4.89803 59.6982 3.08026C61.0171 2.73733 62.3814 2.60565 63.7403 2.69179L56.8256 9.73026C56.4746 10.0869 56.3516 10.6153 56.5085 11.0943L59.1298 19.0973C59.2608 19.4951 59.5682 19.8079 59.9597 19.9401L67.8251 22.6078C68.2953 22.7674 68.8146 22.6429 69.1656 22.2862L76.0803 15.2505C76.096 15.5051 76.1041 15.757 76.1041 16.0077C76.1407 23.3364 70.332 29.3077 63.1294 29.3456C62.0158 29.351 60.9061 29.2117 59.8276 28.9308C59.3805 28.8172 58.9076 28.95 58.5819 29.2814H58.5889V29.2819Z" fill="white"/>
<path d="M67.8564 67.0816L66.0025 68.9679L52.8946 55.6306L54.748 53.7443L67.8564 67.0816Z" fill="white"/>
</g>
<defs>
<clipPath id="clip0">
<rect width="78.6241" height="80" fill="white"/>
</clipPath>
</defs>
</svg>
