<svg width="50" height="50" viewBox="0 0 60 60" fill="none" xmlns="http://www.w3.org/2000/svg">
    <path d="M30.6649 14.376C22.409 14.376 15.6945 21.0899 15.6914 29.3424C15.6902 32.1706 16.4816 34.9248 17.9797 37.3079L18.3357 37.8742L16.8236 43.3973L22.4886 41.9113L23.0349 42.2357C25.333 43.5992 27.9672 44.3209 30.6528 44.322H30.6589C38.9087 44.322 45.6228 37.6075 45.6261 29.3543C45.6277 25.355 44.0723 21.5945 41.2465 18.7652C38.4207 15.9362 34.6626 14.3772 30.6649 14.376ZM39.4687 35.7776C39.0938 36.8286 37.2961 37.7879 36.4316 37.917C35.6563 38.033 34.6754 38.0813 33.5976 37.7388C32.944 37.5314 32.106 37.2545 31.0324 36.7909C26.5188 34.8419 23.5708 30.2971 23.346 29.9968C23.1211 29.6965 21.5086 27.5569 21.5086 25.342C21.5086 23.1275 22.6711 22.0387 23.0835 21.5882C23.4958 21.1379 23.9834 21.0252 24.2833 21.0252C24.5833 21.0252 24.8835 21.0281 25.1456 21.041C25.4218 21.0551 25.7928 20.9362 26.1582 21.8135C26.533 22.7146 27.4328 24.9293 27.5454 25.1546C27.658 25.3798 27.7329 25.6426 27.5829 25.9429C27.4329 26.2429 27.358 26.4308 27.133 26.6935C26.9082 26.9563 26.6605 27.2801 26.458 27.4817C26.2328 27.7062 25.9983 27.9497 26.2608 28.3999C26.5233 28.8506 27.4263 30.324 28.764 31.5172C30.4825 33.05 31.9324 33.5252 32.3823 33.7505C32.8322 33.9758 33.0948 33.938 33.3572 33.6379C33.6198 33.3376 34.4821 32.3239 34.782 31.8736C35.082 31.4232 35.3818 31.4983 35.7943 31.6484C36.2067 31.7987 38.4189 32.8871 38.8689 33.1122C39.3188 33.3374 39.6188 33.4501 39.7313 33.6379C39.8437 33.8254 39.8437 34.7263 39.4687 35.7776Z" fill="white"/>
    <path d="M30.0006 0C13.4322 0 0 13.43 0 29.9988C0 46.5674 13.4322 60 30.0006 60C46.5678 60 60 46.5674 60 29.9988C60 13.43 46.5678 0 30.0006 0ZM30.6589 47.3635C30.6583 47.3635 30.6594 47.3635 30.6589 47.3635H30.6516C27.6377 47.3624 24.6762 46.6062 22.046 45.1717L12.4999 47.6758L15.0546 38.3442C13.4788 35.6132 12.6496 32.5153 12.6509 29.3413C12.6548 19.4125 20.7332 11.3346 30.6588 11.3346C35.476 11.3365 39.9974 13.2119 43.3973 16.6158C46.7971 20.0195 48.6686 24.5438 48.6667 29.3557C48.6625 39.2848 40.5836 47.3635 30.6589 47.3635Z" fill="white"/>
</svg>
